<?xml version="1.0" encoding="utf-8"?>
<!-- Generator: Adobe Illustrator 20.1.0, SVG Export Plug-In . SVG Version: 6.00 Build 0)  -->
<svg version="1.1" id="Layer_1" xmlns="http://www.w3.org/2000/svg" xmlns:xlink="http://www.w3.org/1999/xlink" x="0px" y="0px"
	 viewBox="0 0 620 420" style="enable-background:new 0 0 620 420;" xml:space="preserve">
<g>
	<path style="fill:none;stroke:#000000;stroke-miterlimit:10;" d="M588.302,240"/>
	<path style="fill:none;stroke:#000000;stroke-miterlimit:10;" d="M588.302,240.023"/>
	<g>
		<g>
			<g>
				<g>
					<line style="fill:none;stroke:#DCDCDC;stroke-miterlimit:10;" x1="593.5" y1="39" x2="593.5" y2="40"/>
					<line style="fill:none;stroke:#DCDCDC;stroke-miterlimit:10;stroke-dasharray:1,1;" x1="593.5" y1="41" x2="593.5" y2="338"/>
					<line style="fill:none;stroke:#DCDCDC;stroke-miterlimit:10;" x1="593.5" y1="339" x2="593.5" y2="339"/>
				</g>
			</g>
			<g>
				<g>
					<line style="fill:none;stroke:#DCDCDC;stroke-miterlimit:10;" x1="508.5" y1="39" x2="508.5" y2="40"/>
					<line style="fill:none;stroke:#DCDCDC;stroke-miterlimit:10;stroke-dasharray:1,1;" x1="508.5" y1="41" x2="508.5" y2="338"/>
					<line style="fill:none;stroke:#DCDCDC;stroke-miterlimit:10;" x1="508.5" y1="339" x2="508.5" y2="339"/>
				</g>
			</g>
			<g>
				<g>
					<line style="fill:none;stroke:#DCDCDC;stroke-miterlimit:10;" x1="424.5" y1="39" x2="424.5" y2="40"/>
					<line style="fill:none;stroke:#DCDCDC;stroke-miterlimit:10;stroke-dasharray:1,1;" x1="424.5" y1="41" x2="424.5" y2="338"/>
					<line style="fill:none;stroke:#DCDCDC;stroke-miterlimit:10;" x1="424.5" y1="339" x2="424.5" y2="339"/>
				</g>
			</g>
			<g>
				<g>
					<line style="fill:none;stroke:#DCDCDC;stroke-miterlimit:10;" x1="340.5" y1="39" x2="340.5" y2="40"/>
					<line style="fill:none;stroke:#DCDCDC;stroke-miterlimit:10;stroke-dasharray:1,1;" x1="340.5" y1="41" x2="340.5" y2="338"/>
					<line style="fill:none;stroke:#DCDCDC;stroke-miterlimit:10;" x1="340.5" y1="339" x2="340.5" y2="339"/>
				</g>
			</g>
			<g>
				<g>
					<line style="fill:none;stroke:#DCDCDC;stroke-miterlimit:10;" x1="256.5" y1="39" x2="256.5" y2="40"/>
					<line style="fill:none;stroke:#DCDCDC;stroke-miterlimit:10;stroke-dasharray:1,1;" x1="256.5" y1="41" x2="256.5" y2="338"/>
					<line style="fill:none;stroke:#DCDCDC;stroke-miterlimit:10;" x1="256.5" y1="339" x2="256.5" y2="339"/>
				</g>
			</g>
			<g>
				<g>
					<line style="fill:none;stroke:#DCDCDC;stroke-miterlimit:10;" x1="172.5" y1="39" x2="172.5" y2="40"/>
					<line style="fill:none;stroke:#DCDCDC;stroke-miterlimit:10;stroke-dasharray:1,1;" x1="172.5" y1="41" x2="172.5" y2="338"/>
					<line style="fill:none;stroke:#DCDCDC;stroke-miterlimit:10;" x1="172.5" y1="339" x2="172.5" y2="339"/>
				</g>
			</g>
			<g>
				<g>
					<line style="fill:none;stroke:#DCDCDC;stroke-miterlimit:10;" x1="88.5" y1="39" x2="88.5" y2="40"/>
					<line style="fill:none;stroke:#DCDCDC;stroke-miterlimit:10;stroke-dasharray:1,1;" x1="88.5" y1="41" x2="88.5" y2="338"/>
					<line style="fill:none;stroke:#DCDCDC;stroke-miterlimit:10;" x1="88.5" y1="339" x2="88.5" y2="339"/>
				</g>
			</g>
		</g>
	</g>
	<rect x="88" y="39" style="fill:#CB0911;" width="462" height="4"/>
	<rect x="88" y="131" style="fill:#CB0911;" width="341" height="4"/>
	<rect x="88" y="162" style="fill:#CB0911;" width="331" height="4"/>
	<rect x="88" y="101" style="fill:#CB0911;" width="412" height="4"/>
	<rect x="88" y="71" style="fill:#CB0911;" width="455" height="4"/>
	<rect x="88" y="194" style="fill:#CB0911;" width="261" height="4"/>
	<rect x="88" y="286" style="fill:#CB0911;" width="244" height="4"/>
	<rect x="88" y="317" style="fill:#CB0911;" width="191" height="4"/>
	<rect x="88" y="256" style="fill:#CB0911;" width="246" height="4"/>
	<rect x="88" y="226" style="fill:#CB0911;" width="260" height="4"/>
</g>
</svg>
