<?xml version="1.0" encoding="utf-8"?>
<!-- Generator: Adobe Illustrator 20.1.0, SVG Export Plug-In . SVG Version: 6.00 Build 0)  -->
<svg version="1.1" id="Layer_1" xmlns="http://www.w3.org/2000/svg" xmlns:xlink="http://www.w3.org/1999/xlink" x="0px" y="0px"
	 viewBox="0 0 370 296" style="enable-background:new 0 0 370 296;" xml:space="preserve">
<g>
	<path style="fill:none;stroke:#000000;stroke-miterlimit:10;" d="M362.899,241.284"/>
	<path style="fill:none;stroke:#000000;stroke-miterlimit:10;" d="M362.899,241.307"/>
	<path style="fill:none;stroke:#000000;stroke-miterlimit:10;" d="M361.286,170.198"/>
	<path style="fill:none;stroke:#000000;stroke-miterlimit:10;" d="M361.286,170.215"/>
	<g>
		<g>
			<g>
				<g>
					<line style="fill:none;stroke:#DCDCDC;stroke-miterlimit:10;" x1="361.5" y1="25.201" x2="361.5" y2="26.201"/>
					
						<line style="fill:none;stroke:#DCDCDC;stroke-miterlimit:10;stroke-dasharray:1,1;" x1="361.5" y1="27.201" x2="361.5" y2="257.201"/>
					<line style="fill:none;stroke:#DCDCDC;stroke-miterlimit:10;" x1="361.5" y1="258.201" x2="361.5" y2="258.201"/>
				</g>
			</g>
			<g>
				<g>
					<line style="fill:none;stroke:#DCDCDC;stroke-miterlimit:10;" x1="301.5" y1="25.201" x2="301.5" y2="26.201"/>
					
						<line style="fill:none;stroke:#DCDCDC;stroke-miterlimit:10;stroke-dasharray:1,1;" x1="301.5" y1="27.201" x2="301.5" y2="257.201"/>
					<line style="fill:none;stroke:#DCDCDC;stroke-miterlimit:10;" x1="301.5" y1="258.201" x2="301.5" y2="258.201"/>
				</g>
			</g>
			<g>
				<g>
					<line style="fill:none;stroke:#DCDCDC;stroke-miterlimit:10;" x1="241.5" y1="25.201" x2="241.5" y2="26.201"/>
					
						<line style="fill:none;stroke:#DCDCDC;stroke-miterlimit:10;stroke-dasharray:1,1;" x1="241.5" y1="27.201" x2="241.5" y2="257.201"/>
					<line style="fill:none;stroke:#DCDCDC;stroke-miterlimit:10;" x1="241.5" y1="258.201" x2="241.5" y2="258.201"/>
				</g>
			</g>
			<g>
				<g>
					<line style="fill:none;stroke:#DCDCDC;stroke-miterlimit:10;" x1="181.5" y1="25.201" x2="181.5" y2="26.201"/>
					
						<line style="fill:none;stroke:#DCDCDC;stroke-miterlimit:10;stroke-dasharray:1,1;" x1="181.5" y1="27.201" x2="181.5" y2="257.201"/>
					<line style="fill:none;stroke:#DCDCDC;stroke-miterlimit:10;" x1="181.5" y1="258.201" x2="181.5" y2="258.201"/>
				</g>
			</g>
			<g>
				<g>
					<line style="fill:none;stroke:#DCDCDC;stroke-miterlimit:10;" x1="122.5" y1="25.201" x2="122.5" y2="26.201"/>
					
						<line style="fill:none;stroke:#DCDCDC;stroke-miterlimit:10;stroke-dasharray:1,1;" x1="122.5" y1="27.201" x2="122.5" y2="257.201"/>
					<line style="fill:none;stroke:#DCDCDC;stroke-miterlimit:10;" x1="122.5" y1="258.201" x2="122.5" y2="258.201"/>
				</g>
			</g>
			<g>
				<g>
					<line style="fill:none;stroke:#DCDCDC;stroke-miterlimit:10;" x1="62.5" y1="25.201" x2="62.5" y2="26.201"/>
					
						<line style="fill:none;stroke:#DCDCDC;stroke-miterlimit:10;stroke-dasharray:1,1;" x1="62.5" y1="27.201" x2="62.5" y2="257.201"/>
					<line style="fill:none;stroke:#DCDCDC;stroke-miterlimit:10;" x1="62.5" y1="258.201" x2="62.5" y2="258.201"/>
				</g>
			</g>
			<g>
				<g>
					<line style="fill:none;stroke:#DCDCDC;stroke-miterlimit:10;" x1="2.5" y1="25.201" x2="2.5" y2="26.201"/>
					
						<line style="fill:none;stroke:#DCDCDC;stroke-miterlimit:10;stroke-dasharray:1,1;" x1="2.5" y1="27.201" x2="2.5" y2="257.201"/>
					<line style="fill:none;stroke:#DCDCDC;stroke-miterlimit:10;" x1="2.5" y1="258.201" x2="2.5" y2="258.201"/>
				</g>
			</g>
		</g>
	</g>
	<rect x="3" y="113.201" style="fill:#CB0911;" width="243" height="4"/>
	<rect x="3" y="47.201" style="fill:#CB0911;" width="329" height="4"/>
	<rect x="3" y="135.201" style="fill:#CB0911;" width="236" height="4"/>
	<rect x="3" y="91.201" style="fill:#CB0911;" width="293" height="4"/>
	<rect x="3" y="70.201" style="fill:#CB0911;" width="324" height="4"/>
	<rect x="3" y="157.201" style="fill:#CB0911;" width="186" height="4"/>
	<rect x="3" y="223.201" style="fill:#CB0911;" width="174" height="4"/>
	<rect x="3" y="245.201" style="fill:#CB0911;" width="136" height="4"/>
	<rect x="3" y="202.201" style="fill:#CB0911;" width="175" height="4"/>
	<rect x="3" y="180.201" style="fill:#CB0911;" width="185" height="4"/>
</g>
</svg>
