<?xml version="1.0" encoding="utf-8"?>
<!-- Generator: Adobe Illustrator 20.1.0, SVG Export Plug-In . SVG Version: 6.00 Build 0)  -->
<svg version="1.1" id="Layer_1" xmlns="http://www.w3.org/2000/svg" xmlns:xlink="http://www.w3.org/1999/xlink" x="0px" y="0px"
	 viewBox="0 0 300 297.587" style="enable-background:new 0 0 300 297.587;" xml:space="preserve">
<g>
	<g>
		<g>
			<g>
				<g>
					<line style="fill:none;stroke:#DCDCDC;stroke-miterlimit:10;" x1="289.5" y1="25.587" x2="289.5" y2="25.587"/>
					
						<line style="fill:none;stroke:#DCDCDC;stroke-miterlimit:10;stroke-dasharray:1,1;" x1="289.5" y1="26.587" x2="289.5" y2="257.587"/>
					<line style="fill:none;stroke:#DCDCDC;stroke-miterlimit:10;" x1="289.5" y1="257.587" x2="289.5" y2="258.587"/>
				</g>
			</g>
			<g>
				<g>
					<line style="fill:none;stroke:#DCDCDC;stroke-miterlimit:10;" x1="241.5" y1="25.587" x2="241.5" y2="25.587"/>
					
						<line style="fill:none;stroke:#DCDCDC;stroke-miterlimit:10;stroke-dasharray:1,1;" x1="241.5" y1="26.587" x2="241.5" y2="257.587"/>
					<line style="fill:none;stroke:#DCDCDC;stroke-miterlimit:10;" x1="241.5" y1="257.587" x2="241.5" y2="258.587"/>
				</g>
			</g>
			<g>
				<g>
					<line style="fill:none;stroke:#DCDCDC;stroke-miterlimit:10;" x1="193.5" y1="25.587" x2="193.5" y2="25.587"/>
					
						<line style="fill:none;stroke:#DCDCDC;stroke-miterlimit:10;stroke-dasharray:1,1;" x1="193.5" y1="26.587" x2="193.5" y2="257.587"/>
					<line style="fill:none;stroke:#DCDCDC;stroke-miterlimit:10;" x1="193.5" y1="257.587" x2="193.5" y2="258.587"/>
				</g>
			</g>
			<g>
				<g>
					<line style="fill:none;stroke:#DCDCDC;stroke-miterlimit:10;" x1="145.5" y1="25.587" x2="145.5" y2="25.587"/>
					
						<line style="fill:none;stroke:#DCDCDC;stroke-miterlimit:10;stroke-dasharray:1,1;" x1="145.5" y1="26.587" x2="145.5" y2="257.587"/>
					<line style="fill:none;stroke:#DCDCDC;stroke-miterlimit:10;" x1="145.5" y1="257.587" x2="145.5" y2="258.587"/>
				</g>
			</g>
			<g>
				<g>
					<line style="fill:none;stroke:#DCDCDC;stroke-miterlimit:10;" x1="98.5" y1="25.587" x2="98.5" y2="25.587"/>
					
						<line style="fill:none;stroke:#DCDCDC;stroke-miterlimit:10;stroke-dasharray:1,1;" x1="98.5" y1="26.587" x2="98.5" y2="257.587"/>
					<line style="fill:none;stroke:#DCDCDC;stroke-miterlimit:10;" x1="98.5" y1="257.587" x2="98.5" y2="258.587"/>
				</g>
			</g>
			<g>
				<g>
					<line style="fill:none;stroke:#DCDCDC;stroke-miterlimit:10;" x1="50.5" y1="25.587" x2="50.5" y2="25.587"/>
					
						<line style="fill:none;stroke:#DCDCDC;stroke-miterlimit:10;stroke-dasharray:1,1;" x1="50.5" y1="26.587" x2="50.5" y2="257.587"/>
					<line style="fill:none;stroke:#DCDCDC;stroke-miterlimit:10;" x1="50.5" y1="257.587" x2="50.5" y2="258.587"/>
				</g>
			</g>
			<g>
				<g>
					<line style="fill:none;stroke:#DCDCDC;stroke-miterlimit:10;" x1="2.5" y1="25.587" x2="2.5" y2="25.587"/>
					
						<line style="fill:none;stroke:#DCDCDC;stroke-miterlimit:10;stroke-dasharray:1,1;" x1="2.5" y1="26.587" x2="2.5" y2="257.587"/>
					<line style="fill:none;stroke:#DCDCDC;stroke-miterlimit:10;" x1="2.5" y1="257.587" x2="2.5" y2="258.587"/>
				</g>
			</g>
		</g>
	</g>
	<rect x="3" y="113.587" style="fill:#CB0911;" width="194" height="4"/>
	<rect x="3" y="47.587" style="fill:#CB0911;" width="263" height="4"/>
	<rect x="3" y="135.587" style="fill:#CB0911;" width="188" height="4"/>
	<rect x="3" y="91.587" style="fill:#CB0911;" width="234" height="4"/>
	<rect x="3" y="70.587" style="fill:#CB0911;" width="259" height="4"/>
	<rect x="3" y="157.587" style="fill:#CB0911;" width="148" height="4"/>
	<rect x="3" y="223.587" style="fill:#CB0911;" width="139" height="4"/>
	<rect x="3" y="245.587" style="fill:#CB0911;" width="108" height="4"/>
	<rect x="3" y="202.587" style="fill:#CB0911;" width="140" height="4"/>
	<rect x="3" y="180.587" style="fill:#CB0911;" width="148" height="4"/>
</g>
</svg>
